<?xml version="1.0" encoding="utf-8"?>
<svg id="svg2" viewBox="0 0 1800 1300" xmlns="http://www.w3.org/2000/svg">
  <desc>Source: openclipart.org/detail/213647</desc>
  <defs id="defs4">
    <filter id="filter4021" style="color-interpolation-filters: sRGB;">
      <feGaussianBlur id="feGaussianBlur4023" stdDeviation="1.8158482"/>
    </filter>
    <linearGradient id="linearGradient4239" y2="978.73" gradientUnits="userSpaceOnUse" x2="696" gradientTransform="translate(270.42 -137.28)" y1="973.37" x1="696">
      <stop id="stop3953" style="stop-color:#f3e57c" offset="0"/>
      <stop id="stop3959" style="stop-color:#f2ebce" offset="0.5"/>
      <stop id="stop3955" style="stop-color:#f0db22" offset="1"/>
    </linearGradient>
    <linearGradient id="linearGradient4241" y2="978.73" gradientUnits="userSpaceOnUse" x2="696" gradientTransform="matrix(1.1634 0 0 1.1623 -760.74 146.5)" y1="973.37" x1="696">
      <stop id="stop3953" style="stop-color:#f3e57c" offset="0"/>
      <stop id="stop3959" style="stop-color:#f2ebce" offset="0.5"/>
      <stop id="stop3955" style="stop-color:#f0db22" offset="1"/>
    </linearGradient>
    <linearGradient id="linearGradient4243" y2="978.73" gradientUnits="userSpaceOnUse" x2="696" gradientTransform="matrix(1.0543 0 0 .73164 -176.51 479.24)" y1="973.37" x1="696">
      <stop id="stop3953" style="stop-color:#f3e57c" offset="0"/>
      <stop id="stop3959" style="stop-color:#f2ebce" offset="0.5"/>
      <stop id="stop3955" style="stop-color:#f0db22" offset="1"/>
    </linearGradient>
    <linearGradient id="linearGradient4245" y2="978.73" gradientUnits="userSpaceOnUse" x2="696" gradientTransform="matrix(.96385 0 0 .66370 -127.95 573.75)" y1="973.37" x1="696">
      <stop id="stop3953" style="stop-color:#f3e57c" offset="0"/>
      <stop id="stop3959" style="stop-color:#f2ebce" offset="0.5"/>
      <stop id="stop3955" style="stop-color:#f0db22" offset="1"/>
    </linearGradient>
    <linearGradient id="linearGradient4247" y2="978.73" gradientUnits="userSpaceOnUse" x2="696" gradientTransform="matrix(.91470 0 0 .89982 -1656.7 -30.099)" y1="973.37" x1="696">
      <stop id="stop3953" style="stop-color:#f3e57c" offset="0"/>
      <stop id="stop3959" style="stop-color:#f2ebce" offset="0.5"/>
      <stop id="stop3955" style="stop-color:#f0db22" offset="1"/>
    </linearGradient>
    <linearGradient id="linearGradient4249" y2="978.73" gradientUnits="userSpaceOnUse" x2="696" gradientTransform="matrix(.91470 0 0 .89982 -560.28 404.67)" y1="973.37" x1="696">
      <stop id="stop3953" style="stop-color:#f3e57c" offset="0"/>
      <stop id="stop3959" style="stop-color:#f2ebce" offset="0.5"/>
      <stop id="stop3955" style="stop-color:#f0db22" offset="1"/>
    </linearGradient>
    <linearGradient id="linearGradient4251" y2="978.73" gradientUnits="userSpaceOnUse" x2="696" gradientTransform="matrix(1.113 0 0 1.0949 -885.07 360.88)" y1="973.37" x1="696">
      <stop id="stop3953" style="stop-color:#f3e57c" offset="0"/>
      <stop id="stop3959" style="stop-color:#f2ebce" offset="0.5"/>
      <stop id="stop3955" style="stop-color:#f0db22" offset="1"/>
    </linearGradient>
    <linearGradient id="linearGradient4253" y2="978.73" gradientUnits="userSpaceOnUse" x2="696" gradientTransform="translate(428.53 -217.85)" y1="973.37" x1="696">
      <stop id="stop3953" style="stop-color:#f3e57c" offset="0"/>
      <stop id="stop3959" style="stop-color:#f2ebce" offset="0.5"/>
      <stop id="stop3955" style="stop-color:#f0db22" offset="1"/>
    </linearGradient>
    <linearGradient id="linearGradient4255" y2="978.73" gradientUnits="userSpaceOnUse" x2="696" gradientTransform="matrix(.42862 0 0 .62685 -1054.8 604.87)" y1="973.37" x1="696">
      <stop id="stop3953" style="stop-color:#f3e57c" offset="0"/>
      <stop id="stop3959" style="stop-color:#f2ebce" offset="0.5"/>
      <stop id="stop3955" style="stop-color:#f0db22" offset="1"/>
    </linearGradient>
    <linearGradient id="linearGradient4257" y2="978.73" gradientUnits="userSpaceOnUse" x2="696" gradientTransform="matrix(.19735 0 0 .62685 1077.3 105.98)" y1="973.37" x1="696">
      <stop id="stop3953" style="stop-color:#f3e57c" offset="0"/>
      <stop id="stop3959" style="stop-color:#f2ebce" offset="0.5"/>
      <stop id="stop3955" style="stop-color:#f0db22" offset="1"/>
    </linearGradient>
    <linearGradient id="linearGradient4259" y2="978.73" gradientUnits="userSpaceOnUse" x2="696" gradientTransform="matrix(1.5265 0 0 1.3707 -2294.7 -534.57)" y1="973.37" x1="696">
      <stop id="stop3953" style="stop-color:#f3e57c" offset="0"/>
      <stop id="stop3959" style="stop-color:#f2ebce" offset="0.5"/>
      <stop id="stop3955" style="stop-color:#f0db22" offset="1"/>
    </linearGradient>
    <filter id="filter3984" style="color-interpolation-filters: sRGB;">
      <feGaussianBlur id="feGaussianBlur3986" stdDeviation="2.1168321"/>
    </filter>
  </defs>
  <rect x="-300.903" y="1089.345" width="2164.927" height="124.374" id="rect3970" style="filter: url(#filter3984); fill: rgb(207, 212, 211);"/>
  <path id="path3967" style="fill: rgb(200, 199, 180);" d="M 2066.125 786.183 L 1615.272 883.349 L 1343.212 941.649 L 1176.086 1054.363 L 1168.311 1023.269 L 946.764 1202.062 L -296.977 1170.969 L -238.677 1202.062 L -293.091 1322.548 L -1.585 1272.023 L 429.839 1256.475 L 837.937 1291.455 L 1055.588 1229.268 L 1374.299 968.862 L 2077.783 817.282 Z"/>
  <path id="path4159" style="fill: rgb(207, 197, 174);" d="M 2066.998 120.819 L 1821.655 368.798 L 1410.115 421.56 L 1112.009 854.209 L 755.868 843.657 L 310.036 1123.291 L 1288.753 1083.72 L 2085.454 1067.892 Z"/>
  <g id="g4203" transform="matrix(0.9919, 0, 0, 0.9919, -781.042053, 364.616669)">
    <path id="path3173" style="stroke-linejoin:round;stroke:#5e3535;stroke-linecap:round;stroke-width:7;fill:#cac6aa" d="m939.44 907.41c0 36.542-29.623 66.165-66.165 66.165s-66.165-29.623-66.165-66.165 29.623-66.165 66.165-66.165 66.165 29.623 66.165 66.165z" transform="matrix(.94925 0 0 .94925 339.9 -24.856)"/>
    <path id="path3943" style="stroke-linejoin:round;stroke:#5e3535;stroke-linecap:round;stroke-width:7;fill:#cac6aa" d="m939.44 907.41c0 36.542-29.623 66.165-66.165 66.165s-66.165-29.623-66.165-66.165 29.623-66.165 66.165-66.165 66.165 29.623 66.165 66.165z" transform="matrix(.94925 0 0 .94925 149.4 -28.689)"/>
    <rect x="966.4199829101562" y="834.27001953125" width="96.9749984741211" height="7.071100234985352" rx="5" id="rect3949" style="fill:url(#linearGradient4239)"/>
    <rect x="48.952999114990234" y="1275.699951171875" width="112.81999969482422" height="8.218799591064453" rx="5.816800117492676" id="rect3961" style="fill:url(#linearGradient4241)" transform="matrix(.67521 -.73763 .72969 .68378 0 0)"/>
    <rect x="557.280029296875" y="1190.0999755859375" width="102.23999786376953" height="5.173500061035156" rx="5.271599769592285" id="rect3985" style="fill:url(#linearGradient4243)" transform="matrix(.87882 -.47716 .46775 .88386 0 0)"/>
    <rect x="542.8900146484375" y="1218.5999755859375" width="93.46900177001953" height="4.692999839782715" rx="4.819300174713135" id="rect3989" style="fill:url(#linearGradient4245)" transform="matrix(.88160 -0.472 .47288 .88112 0 0)"/>
    <rect x="-1020" y="844.1199951171875" width="88.7030029296875" height="6.36269998550415" rx="4.573500156402588" id="rect3993" style="fill:url(#linearGradient4247)" transform="matrix(-.22321 -.97477 .98284 -.18448 0 0)"/>
    <rect x="76.3479995727539" y="1278.9000244140625" width="88.7030029296875" height="6.36269998550415" rx="4.573500156402588" id="rect3997" style="fill:url(#linearGradient4249)" transform="matrix(.65481 -.75579 .72930 .68420 0 0)"/>
    <rect x="901.3800048828125" y="747.47998046875" width="93.94400024414062" height="70.71099853515625" id="rect3945" style="fill:#6f7b78"/>
    <rect x="901.3800048828125" y="747.47998046875" width="93.94400024414062" height="41.41600036621094" id="rect3947" style="fill:#5c6663"/>
    <rect x="1131.9000244140625" y="681.0800170898438" width="94.52999877929688" height="71.5199966430664" id="rect4025" style="fill:#464e4b"/>
    <rect x="-110.41999816894531" y="1424.5999755859375" width="107.93000030517578" height="7.742099761962891" rx="5.565100193023682" id="rect3965" style="fill:url(#linearGradient4251)" transform="matrix(.48985 -.87181 .85174 .52396 0 0)"/>
    <rect x="1124.5" y="753.7000122070312" width="96.9749984741211" height="7.071100234985352" rx="5" id="rect3973" style="fill:url(#linearGradient4253)"/>
    <rect x="-756.469970703125" y="1213.9000244140625" width="41.564998626708984" height="4.432499885559082" rx="2.1431000232696533" id="rect3977" style="fill:url(#linearGradient4255)" transform="rotate(-90)"/>
    <path d="M 1215.6866911649704 715 H 1232.8512116670609 A 0.986739993095398 0.986739993095398 0 0 1 1233.8379516601562 715.9867399930954 V 718.4457598924637 A 0.986739993095398 0.986739993095398 0 0 1 1232.8512116670609 719.4324998855591 H 1215.6866911649704 A 0.986739993095398 0.986739993095398 0 0 1 1214.699951171875 718.4457598924637 V 715.9867399930954 A 0.986739993095398 0.986739993095398 0 0 1 1215.6866911649704 715 Z" id="rect3981" style="fill:url(#linearGradient4257)"/>
    <path id="path4039" style="fill:#c7c3ad" d="m1431.9 861.3c0 9.2024-7.4601 16.662-16.662 16.662-9.2024 0-16.662-7.46-16.662-16.662 0-9.2024 7.4601-16.662 16.662-16.662 9.2024 0 16.662 7.46 16.662 16.662z" transform="translate(-346.02 -17.773)"/>
    <g id="g4027" transform="translate(503.75 -85.202)">
      <path id="path4005" style="fill:#464e4b" d="m559.1 689.17s8.7067 12.438 9.9506 23.011c1.2438 10.572 3.7314 19.901 3.7314 19.901l41.046 27.364-3.7314 6.2191s-18.035-3.7315-29.23-10.572c-11.194-6.841-19.279-16.17-19.279-16.17s-6.2191-16.792-8.7067-25.498c-2.4876-8.7067 6.2191-24.254 6.2191-24.254z"/>
      <path id="path4001" style="fill:#5c6663" d="m564.56 936.34 5.6402 6.708 46.733-106.48-61.569-18.035 6.841-82.092 16.17-32.961h-10.572s0.62191-14.926-9.3286-22.389c-9.9505-7.4629-17.413-10.572-24.254-1.2438-6.841 9.3286-32.339 63.435-37.936 90.799-5.5972 27.364-10.572 52.862-10.572 52.862s23.011 10.572 36.071 13.06c13.06 2.4876 62.191 11.816 62.191 11.816s-13.682 16.17-15.548 28.608c-1.8657 12.438-3.8644 59.351-3.8644 59.351z"/>
      <path id="path4003" style="filter:url(#filter4021);fill:#4e5654" d="m536.09 688.55c-4.3534 4.3534-0.62191 26.742 0.62191 33.583s4.9753 34.827 4.9753 34.827 20.523 22.389 29.23 24.254c8.7067 1.8657 21.145 11.194 21.145 11.194l4.9753-6.841s-19.279-18.657-24.254-24.254c-4.9753-5.5972-21.767-11.816-21.767-11.816s4.9753-11.816 4.9753-26.742 2.4876-27.986-2.4876-31.717c-4.9753-3.7314-17.413-2.4876-17.413-2.4876z"/>
      <path id="path4007" style="fill:#f2ebd6" d="m545.41 648.74 7.4629 29.852 26.12 0.62191-4.9753-42.912z"/>
      <path id="path4009" style="fill:#b2aa98" d="m557.85 676.23 1.8657 4.229h24.876l-3.7315-4.9753z"/>
      <path id="path4011" style="fill:#859191" d="m539.19 640.04 3.1096 11.816 39.18-13.682-4.3534-13.682z"/>
      <path id="path4013" style="fill:#777666" d="m571.53 638.79 18.657-7.4629v5.5972l-13.06 4.3534z"/>
      <path id="path4017" style="fill:#e8e59b" d="m565.32 683.57 8.0848-1.8657 2.4876 11.816-4.9753 7.4629-6.2191-7.4629z"/>
      <path id="path4015" style="fill:#efed9d" d="m545.41 673 2.4876-4.9753s1.8657-0.62191 9.3286 5.5972 11.194 14.304 11.194 14.304l-8.0848 9.3286s3.7314-7.4629-1.8657-12.438c-5.5972-4.9753-13.06-11.816-13.06-11.816z"/>
      <path id="path4019" d="m538.57 686.06c-4.3534 4.3534-0.62191 26.742 0.62191 33.583s4.9753 34.827 4.9753 34.827 20.523 22.389 29.23 24.254c8.7067 1.8657 21.145 11.194 21.145 11.194l4.9753-6.841s-19.279-18.657-24.254-24.254c-4.9753-5.5972-21.767-11.816-21.767-11.816s4.9753-11.816 4.9753-26.742 2.4876-27.986-2.4876-31.717c-4.9753-3.7314-17.413-2.4876-17.413-2.4876z" style="fill:#5c6663"/>
    </g>
    <path id="path4043" style="fill:#c7c3ad" d="m1127.5 704.39c0 3.5276-2.8597 6.3873-6.3873 6.3873s-6.3873-2.8597-6.3873-6.3873 2.8597-6.3873 6.3873-6.3873 6.3873 2.8597 6.3873 6.3873z"/>
    <rect x="-1232.300048828125" y="797.1699829101562" width="148.02999877929688" height="9.69260025024414" rx="7.632299900054932" id="rect3969" style="fill:url(#linearGradient4259)" transform="matrix(-.34536 -.93847 .92184 -.38756 0 0)"/>
    <path id="path4041" style="fill:#c7c3ad" d="m1113.6 709.67c0 3.9877-2.984 7.2204-6.665 7.2204s-6.665-3.2327-6.665-7.2204 2.984-7.2204 6.665-7.2204 6.665 3.2327 6.665 7.2204z"/>
    <path id="path4045" d="m1103.1 699.12 14.441 2.2217 1.1108 11.664-6.1095 7.7758-2.7771-3.3325 3.8879-6.1096-1.1108-4.9987-9.4421-1.6662z" style="fill:#f2ebd6"/>
    <path id="path4047" style="fill:#f2ebd6" d="m1115.3 674.12 14.441 2.2217 1.1108 11.664-6.1095 7.7758-2.7771-3.3325 3.8879-6.1096-1.1108-4.9987-9.4421-1.6662z"/>
    <path id="path4049" style="fill:#ce8066" d="m1119.7 695.51c0 1.9939-1.2433 3.6102-2.777 3.6102-1.5338 0-2.7771-1.6163-2.7771-3.6102s1.2433-3.6102 2.7771-3.6102c1.5337 0 2.777 1.6163 2.777 3.6102z"/>
    <path id="path4051" d="m1069.4 850.08-5.5964 4.5624 19.315 28.628 0.8929-5.1929-9.2969-22.628z" style="stroke:#000000;stroke-width:1px;fill:#5c6663"/>
  </g>
  <g>
    <title>Tree</title>
    <path id="path4137" style="fill: rgb(128, 147, 125);" d="M 853.451 112.909 C 882.468 110.272 961.611 764.52 964.249 851.575 C 966.887 938.63 937.867 1123.299 893.021 1115.389 C 848.174 1107.475 758.479 1065.266 790.136 616.795 C 821.794 168.322 853.451 112.927 853.451 112.927 Z"/>
    <path id="path4139" style="fill: rgb(140, 158, 138);" d="M 853.451 112.927 C 853.451 112.927 821.819 168.29 790.161 616.761 C 758.902 1059.604 845.915 1106.304 891.286 1115.036 L 868.092 146.613 C 862.462 124.888 857.484 112.555 853.451 112.923 Z"/>
    <path id="path4145" style="fill: rgb(167, 155, 112);" d="M 871.922 1252.553 L 916.769 1255.191 L 895.664 1099.545 L 874.558 1099.545 Z"/>
  </g>
  <g>
    <title>Tree</title>
    <path id="path4147" style="fill: rgb(164, 180, 125);" d="M 517.847 91.398 C 546.955 90.102 595.818 747.291 594.437 834.379 C 593.054 921.464 555.543 1104.592 511.109 1094.617 C 466.675 1084.642 379.024 1038.338 431.345 591.806 C 483.666 145.276 517.847 91.398 517.847 91.398 Z"/>
    <path id="path4149" style="fill: rgb(140, 167, 117);" d="M 517.847 91.415 C 517.847 91.415 483.693 145.261 431.372 591.79 C 379.707 1032.718 464.472 1083.399 509.391 1094.197 L 530.916 125.739 C 526.295 103.778 521.891 91.229 517.846 91.408 Z"/>
    <path id="path4151" style="fill: rgb(167, 155, 112);" d="M 494.672 1236.734 L 539.519 1239.372 L 518.413 1083.727 L 497.309 1083.727 Z"/>
  </g>
  <g>
    <title>Tree</title>
    <path id="path4153" style="fill: rgb(164, 180, 125);" d="M 170.303 120.719 C 199.43 119.922 237.024 777.854 234.149 864.908 C 231.274 951.957 190.63 1134.416 146.375 1123.685 C 102.118 1112.949 15.273 1065.15 75.24 619.582 C 135.206 174.019 170.304 120.719 170.304 120.719 Z"/>
    <path id="path4155" style="fill: rgb(140, 167, 117);" d="M 170.303 120.735 C 170.303 120.735 135.233 173.989 75.267 619.566 C 16.054 1059.554 99.939 1111.662 144.665 1123.231 L 182.783 155.278 C 178.539 133.241 174.351 120.618 170.303 120.728 Z"/>
    <path id="path4157" style="fill: rgb(167, 155, 112);" d="M 114.802 1268.389 L 151.735 1286.855 L 154.373 1110.111 L 133.267 1110.111 Z"/>
  </g>
  <g>
    <title>Tree</title>
    <path id="path4161" style="fill: rgb(204, 215, 193);" d="M 1745.081 350.343 L 1687.043 141.928 L 1642.196 355.616 Z"/>
    <path id="path4167" style="fill: rgb(136, 135, 89);" d="M 1679.253 326.598 L 1679.253 392.55 L 1708.271 392.55 L 1705.633 331.875 Z"/>
  </g>
  <g>
    <title>Tree</title>
    <path id="path4163" style="fill: rgb(204, 215, 193);" d="M 1573.626 352.98 L 1515.588 144.564 L 1470.742 358.253 Z"/>
    <path id="path4169" style="fill: rgb(136, 135, 89);" d="M 1520.896 345.07 L 1518.259 413.66 L 1547.277 413.66 L 1539.363 345.07 Z"/>
  </g>
  <g>
    <title>Tree</title>
    <path id="path4165" style="fill: rgb(204, 215, 193);" d="M 1064.502 798.812 L 1006.465 590.396 L 961.617 804.085 Z"/>
    <path id="path4171" style="fill: rgb(136, 135, 89);" d="M 1001.193 790.902 L 1001.193 848.94 L 1024.935 851.578 L 1019.659 790.902 Z"/>
  </g>
  <title>Demo - Postman</title>
  <g>
    <title>Stone</title>
    <path id="path4173" style="fill: rgb(141, 138, 99);" d="M 1834.754 1162.863 L 1317.687 970.283 L 1386.277 833.102 L 1515.543 703.836 L 1657.998 627.332 L 1845.305 574.57 L 2000.951 611.503 L 2085.368 672.178 L 2082.73 1052.066 Z"/>
    <path id="path4177" style="fill: rgb(148, 144, 92);" d="M 1845.334 574.595 L 1658.044 627.334 L 1515.567 703.845 L 1397.336 822.076 L 1835.728 1162.45 L 2082.733 1052.037 L 2085.409 672.201 L 2000.973 611.485 L 1845.326 574.593 Z"/>
    <path id="path4182" style="fill: rgb(141, 138, 99);" d="M 1845.334 574.595 L 1658.044 627.334 L 1532.833 694.557 L 1834.532 1161.498 L 1835.739 1162.442 L 2082.745 1052.029 L 2085.421 672.193 L 2000.985 611.477 L 1845.338 574.585 Z"/>
    <path id="path4187" style="fill: rgb(148, 144, 92);" d="M 1845.334 574.595 L 1658.044 627.334 L 1643.349 635.205 L 1838.515 1161.189 L 2082.75 1052.036 L 2085.427 672.2 L 2000.991 611.484 L 1845.343 574.592 Z"/>
    <path id="path4192" style="fill: rgb(141, 138, 99);" d="M 1845.334 574.595 L 1837.094 576.903 L 1850.843 1155.684 L 2082.735 1052.041 L 2085.411 672.204 L 2000.976 611.488 L 1845.328 574.595 Z"/>
  </g>
  <path id="path4201" style="fill: rgb(239, 227, 203);" d="M 2082.783 793.539 L 1312.464 975.572 L 982.704 1231.461 L 616.017 1260.479 L 489.389 1236.736 L 267.791 1239.373 L -220.257 1281.582 L -312.59 1326.43 L 2059.057 1302.686 L 2095.989 1307.962 L 2109.179 793.532 Z"/>
</svg>